<?xml version="1.0" encoding="UTF-8" standalone="no"?>
<!DOCTYPE svg PUBLIC "-//W3C//DTD SVG 1.1//EN" "http://www.w3.org/Graphics/SVG/1.1/DTD/svg11.dtd">
<svg version="1.1" xmlns="http://www.w3.org/2000/svg" xmlns:xlink="http://www.w3.org/1999/xlink" preserveAspectRatio="xMidYMid meet" viewBox="0 0 169 68" width="169" height="68"><defs><path d="M20.76 48.76L20.76 52.94L23.35 52.94L23.35 53.91L19.56 53.91L19.56 48.76L20.76 48.76Z" id="gk4Rc6DDk"></path><path d="M24.78 52.7C24.54 52.3 24.42 51.84 24.42 51.34C24.42 50.83 24.54 50.38 24.78 49.97C25.02 49.56 25.36 49.25 25.79 49.02C26.22 48.79 26.7 48.67 27.24 48.67C27.78 48.67 28.26 48.79 28.68 49.02C29.11 49.25 29.45 49.57 29.7 49.97C29.94 50.38 30.06 50.83 30.06 51.34C30.06 51.84 29.94 52.3 29.7 52.7C29.45 53.11 29.11 53.42 28.68 53.65C28.26 53.89 27.78 54 27.24 54C26.7 54 26.22 53.89 25.79 53.65C25.36 53.42 25.02 53.11 24.78 52.7ZM28.64 52.19C28.78 51.94 28.85 51.65 28.85 51.33C28.85 51.01 28.78 50.73 28.64 50.48C28.5 50.23 28.31 50.03 28.07 49.89C27.82 49.75 27.54 49.68 27.24 49.68C26.94 49.68 26.66 49.75 26.42 49.89C26.17 50.03 25.98 50.23 25.84 50.48C25.7 50.73 25.63 51.01 25.63 51.33C25.63 51.65 25.7 51.94 25.84 52.19C25.98 52.44 26.17 52.63 26.42 52.77C26.66 52.91 26.94 52.98 27.24 52.98C27.54 52.99 27.82 52.91 28.07 52.77C28.31 52.63 28.5 52.44 28.64 52.19Z" id="bb6AuuK7VT"></path><path d="M36.35 51.25C36.35 52.51 36.35 53.21 36.35 53.35C36.07 53.56 35.75 53.72 35.38 53.83C35.01 53.94 34.64 54 34.27 54C33.73 54 33.25 53.89 32.82 53.66C32.39 53.43 32.06 53.11 31.82 52.71C31.57 52.3 31.45 51.85 31.45 51.34C31.45 50.83 31.57 50.37 31.82 49.96C32.06 49.56 32.4 49.24 32.83 49.01C33.26 48.78 33.75 48.67 34.29 48.67C34.74 48.67 35.15 48.75 35.52 48.9C35.89 49.05 36.2 49.27 36.45 49.56C36.37 49.63 35.76 50.2 35.68 50.27C35.32 49.88 34.87 49.69 34.35 49.69C34.02 49.69 33.73 49.76 33.47 49.89C33.22 50.03 33.02 50.22 32.87 50.48C32.73 50.73 32.66 51.01 32.66 51.34C32.66 51.66 32.73 51.94 32.87 52.19C33.02 52.44 33.21 52.64 33.47 52.78C33.72 52.92 34.01 52.99 34.33 52.99C34.68 52.99 34.99 52.91 35.26 52.77C35.26 52.67 35.26 52.16 35.26 51.25L35.26 51.25L36.35 51.25Z" id="dSVwSym2A"></path><path d="M39.46 48.76L39.46 53.91L38.27 53.91L38.27 48.76L39.46 48.76Z" id="b2yTD1epRi"></path><path d="M41.09 53.4C41.13 53.31 41.46 52.6 41.5 52.51C41.72 52.67 41.98 52.8 42.29 52.89C42.59 52.99 42.9 53.04 43.2 53.04C43.54 53.04 43.79 52.99 43.95 52.89C44.12 52.79 44.2 52.66 44.2 52.49C44.2 52.37 44.15 52.27 44.05 52.18C43.96 52.1 43.84 52.04 43.69 51.99C43.54 51.94 43.33 51.89 43.08 51.83C42.68 51.73 42.36 51.64 42.11 51.55C41.86 51.45 41.65 51.3 41.47 51.1C41.29 50.89 41.2 50.62 41.2 50.27C41.2 49.97 41.28 49.7 41.44 49.46C41.6 49.22 41.85 49.03 42.18 48.88C42.5 48.74 42.9 48.67 43.37 48.67C43.7 48.67 44.03 48.71 44.34 48.79C44.66 48.87 44.93 48.98 45.17 49.13C45.13 49.22 44.83 49.94 44.8 50.03C44.32 49.76 43.84 49.63 43.37 49.63C43.03 49.63 42.79 49.68 42.63 49.79C42.47 49.9 42.39 50.04 42.39 50.22C42.39 50.39 42.48 50.52 42.66 50.61C42.85 50.7 43.13 50.78 43.51 50.87C43.9 50.96 44.22 51.05 44.47 51.15C44.72 51.24 44.94 51.39 45.12 51.59C45.3 51.79 45.39 52.06 45.39 52.4C45.39 52.7 45.31 52.97 45.14 53.21C44.98 53.45 44.73 53.65 44.4 53.79C44.07 53.93 43.67 54 43.2 54C42.79 54 42.39 53.95 42.01 53.83C41.63 53.72 41.32 53.58 41.09 53.4Z" id="b70X9dlgE"></path><path d="M46.36 49.73L46.36 48.76L50.85 48.76L50.85 49.73L49.2 49.73L49.2 53.91L48.01 53.91L48.01 49.73L48.01 49.73L46.36 49.73Z" id="c12OEShCji"></path><path d="M53.5 48.76L53.5 53.91L52.31 53.91L52.31 48.76L53.5 48.76Z" id="hIQg0DHoQ"></path><path d="M55.58 52.71C55.33 52.3 55.21 51.85 55.21 51.34C55.21 50.83 55.33 50.37 55.58 49.96C55.82 49.56 56.15 49.24 56.58 49.01C57 48.78 57.48 48.67 58.01 48.67C58.46 48.67 58.86 48.75 59.23 48.91C59.59 49.06 59.89 49.29 60.14 49.58C60.06 49.66 59.45 50.22 59.37 50.29C59.02 49.89 58.59 49.69 58.07 49.69C57.75 49.69 57.47 49.76 57.22 49.9C56.97 50.04 56.77 50.23 56.63 50.48C56.49 50.73 56.42 51.02 56.42 51.34C56.42 51.66 56.49 51.94 56.63 52.19C56.77 52.44 56.97 52.64 57.22 52.78C57.47 52.92 57.75 52.99 58.07 52.99C58.59 52.99 59.02 52.78 59.37 52.38C59.45 52.45 60.06 53.01 60.14 53.08C59.89 53.38 59.59 53.61 59.22 53.77C58.86 53.93 58.45 54 58.01 54C57.48 54 57 53.89 56.58 53.66C56.15 53.43 55.82 53.11 55.58 52.71Z" id="a2BL3qIiMr"></path><path d="M61.3 53.4C61.34 53.31 61.67 52.6 61.71 52.51C61.93 52.67 62.19 52.8 62.5 52.89C62.8 52.99 63.11 53.04 63.41 53.04C63.75 53.04 64 52.99 64.16 52.89C64.33 52.79 64.41 52.66 64.41 52.49C64.41 52.37 64.36 52.27 64.26 52.18C64.17 52.1 64.04 52.04 63.9 51.99C63.75 51.94 63.54 51.89 63.29 51.83C62.89 51.73 62.57 51.64 62.32 51.55C62.07 51.45 61.86 51.3 61.68 51.1C61.5 50.89 61.41 50.62 61.41 50.27C61.41 49.97 61.49 49.7 61.65 49.46C61.81 49.22 62.06 49.03 62.39 48.88C62.71 48.74 63.11 48.67 63.58 48.67C63.91 48.67 64.24 48.71 64.55 48.79C64.86 48.87 65.14 48.98 65.37 49.13C65.34 49.22 65.04 49.94 65.01 50.03C64.53 49.76 64.05 49.63 63.58 49.63C63.24 49.63 63 49.68 62.84 49.79C62.68 49.9 62.59 50.04 62.59 50.22C62.59 50.39 62.69 50.52 62.87 50.61C63.06 50.7 63.34 50.78 63.72 50.87C64.11 50.96 64.43 51.05 64.68 51.15C64.93 51.24 65.15 51.39 65.33 51.59C65.51 51.79 65.6 52.06 65.6 52.4C65.6 52.7 65.51 52.97 65.35 53.21C65.18 53.45 64.94 53.65 64.61 53.79C64.28 53.93 63.88 54 63.41 54C63 54 62.6 53.95 62.22 53.83C61.84 53.72 61.53 53.58 61.3 53.4Z" id="a1ZQEzdBW"></path><path d="M74.81 50.82L73.29 53.37L72.75 53.37L71.24 50.89L71.24 53.91L70.12 53.91L70.12 48.76L71.11 48.76L73.04 51.96L74.94 48.76L75.92 48.76L75.93 53.91L74.82 53.91L74.82 53.91L74.81 50.82Z" id="f2O5g7B29w"></path><path d="M78.97 52.81L78.52 53.91L77.29 53.91L79.59 48.76L80.77 48.76L83.08 53.91L81.83 53.91L81.37 52.81L78.97 52.81ZM80.18 49.93L79.36 51.9L81 51.9L80.18 49.93Z" id="a2hdG7e9Nw"></path><path d="M86.77 48.76C87.34 48.76 87.83 48.87 88.26 49.08C88.69 49.29 89.03 49.59 89.26 49.98C89.5 50.37 89.62 50.82 89.62 51.34C89.62 51.85 89.5 52.3 89.26 52.69C89.03 53.08 88.69 53.38 88.26 53.59C87.83 53.81 87.34 53.91 86.77 53.91C86.62 53.91 85.84 53.91 84.43 53.91L84.43 48.76C85.84 48.76 86.62 48.76 86.77 48.76ZM87.95 52.5C88.26 52.21 88.41 51.83 88.41 51.33C88.41 50.84 88.26 50.45 87.95 50.17C87.64 49.88 87.23 49.74 86.72 49.74C86.64 49.74 86.28 49.74 85.62 49.74L85.62 52.93L86.72 52.93L86.72 52.93C87.33 52.84 87.75 52.69 87.95 52.5Z" id="a4397sNCOa"></path><path d="M95.33 53.91L91.33 53.91L91.33 48.76L95.23 48.76L95.23 49.71L92.52 49.71L92.52 50.83L94.91 50.83L94.91 51.76L92.52 51.76L92.52 52.95L95.33 52.95L95.33 52.95L95.33 53.91Z" id="c5kFlozq1e"></path><path d="M99.58 53.4C99.62 53.31 99.95 52.6 99.99 52.51C100.21 52.67 100.47 52.8 100.78 52.89C101.08 52.99 101.39 53.04 101.69 53.04C102.03 53.04 102.28 52.99 102.44 52.89C102.6 52.79 102.69 52.66 102.69 52.49C102.69 52.37 102.64 52.27 102.54 52.18C102.45 52.1 102.32 52.04 102.17 51.99C102.03 51.94 101.82 51.89 101.57 51.83C101.17 51.73 100.85 51.64 100.6 51.55C100.35 51.45 100.14 51.3 99.96 51.1C99.78 50.89 99.69 50.62 99.69 50.27C99.69 49.97 99.77 49.7 99.93 49.46C100.09 49.22 100.34 49.03 100.67 48.88C100.99 48.74 101.39 48.67 101.86 48.67C102.19 48.67 102.52 48.71 102.83 48.79C103.14 48.87 103.42 48.98 103.65 49.13C103.62 49.22 103.32 49.94 103.29 50.03C102.81 49.76 102.33 49.63 101.86 49.63C101.52 49.63 101.28 49.68 101.11 49.79C100.95 49.9 100.87 50.04 100.87 50.22C100.87 50.39 100.97 50.52 101.15 50.61C101.34 50.7 101.62 50.78 102 50.87C102.39 50.96 102.71 51.05 102.96 51.15C103.21 51.24 103.43 51.39 103.61 51.59C103.78 51.79 103.88 52.06 103.88 52.4C103.88 52.7 103.79 52.97 103.63 53.21C103.46 53.45 103.22 53.65 102.89 53.79C102.56 53.93 102.16 54 101.68 54C101.28 54 100.88 53.95 100.5 53.83C100.12 53.72 99.81 53.58 99.58 53.4Z" id="ezl07l8di"></path><path d="M110.19 50.82L108.67 53.37L108.13 53.37L106.62 50.89L106.62 53.91L105.5 53.91L105.5 48.76L106.49 48.76L108.42 51.96L110.32 48.76L111.3 48.76L111.32 53.91L110.2 53.91L110.2 53.91L110.19 50.82Z" id="e1EJ8Uagae"></path><path d="M114.36 52.81L113.9 53.91L112.68 53.91L114.98 48.76L116.16 48.76L118.46 53.91L117.21 53.91L116.75 52.81L114.36 52.81ZM115.56 49.93L114.74 51.9L116.38 51.9L115.56 49.93Z" id="gWIlPWEhf"></path><path d="M122.11 52.48L122.05 52.48L121.01 52.48L121.01 53.91L119.81 53.91L119.81 48.76C121.15 48.76 121.9 48.76 122.05 48.76C122.5 48.76 122.9 48.84 123.24 48.99C123.58 49.14 123.83 49.36 124.02 49.64C124.2 49.92 124.29 50.25 124.29 50.63C124.29 51.01 124.2 51.34 124.01 51.62C123.83 51.9 123.57 52.11 123.23 52.26C123.3 52.37 123.69 52.92 124.39 53.91L123.1 53.91L122.11 52.48ZM121.98 49.73C121.92 49.73 121.59 49.73 121.01 49.73L121.01 51.53C121.59 51.53 121.92 51.53 121.98 51.53C122.34 51.53 122.61 51.45 122.8 51.29C122.99 51.14 123.08 50.91 123.08 50.63C123.08 50.34 122.99 50.12 122.8 49.96C122.61 49.81 122.34 49.73 121.98 49.73Z" id="a2LRaoZfcX"></path><path d="M125.39 49.73L125.39 48.76L129.88 48.76L129.88 49.73L128.23 49.73L128.23 53.91L127.04 53.91L127.04 49.73L127.04 49.73L125.39 49.73Z" id="fWKvKo7rQ"></path><path d="M135.33 53.91L131.34 53.91L131.34 48.76L135.24 48.76L135.24 49.71L132.52 49.71L132.52 50.83L134.92 50.83L134.92 51.76L132.52 51.76L132.52 52.95L135.33 52.95L135.33 52.95L135.33 53.91Z" id="kLPuzYshM"></path><path d="M139.39 52.48L139.33 52.48L138.29 52.48L138.29 53.91L137.09 53.91L137.09 48.76C138.44 48.76 139.18 48.76 139.33 48.76C139.79 48.76 140.18 48.84 140.52 48.99C140.86 49.14 141.12 49.36 141.3 49.64C141.48 49.92 141.57 50.25 141.57 50.63C141.57 51.01 141.48 51.34 141.29 51.62C141.11 51.9 140.85 52.11 140.51 52.26C140.59 52.37 140.97 52.92 141.67 53.91L140.38 53.91L139.39 52.48ZM139.26 49.73C139.2 49.73 138.87 49.73 138.29 49.73L138.29 51.53C138.87 51.53 139.2 51.53 139.26 51.53C139.62 51.53 139.9 51.45 140.08 51.29C140.27 51.14 140.36 50.91 140.36 50.63C140.36 50.34 140.27 50.12 140.08 49.96C139.89 49.81 139.62 49.73 139.26 49.73Z" id="a2cInePM50"></path><path d="M91.49 33.09C91.4 32.99 82.83 22.07 78.79 16.9C78.63 16.9 77.85 16.9 76.45 16.9L76.45 43.83C69.94 27.43 66.33 18.31 65.6 16.49C65.6 16.49 64.13 16.51 63.5 16.49C62.62 18.74 52.92 43.35 52.87 43.46C50.28 39.52 47.71 35.61 45.14 31.69C45.25 31.65 45.33 31.61 45.42 31.57C46.33 31.19 47.14 30.65 47.83 29.94C49.39 28.35 50.2 26.46 50.12 24.21C50.07 22.9 49.84 21.64 49.19 20.49C48.35 18.96 47.03 18.02 45.43 17.43C43.74 16.81 41.97 16.61 40.19 16.6C39.03 16.59 37.88 16.64 36.73 16.68C35.13 16.73 33.52 16.85 31.92 16.86C24.72 16.88 10.01 16.87 10.01 16.87C10.01 16.87 10.01 16.9 10.01 16.9C10.01 16.9 10.01 19.83 10 21.14C12.76 21.13 18.58 21.13 18.58 21.13C18.58 22.64 18.58 30.2 18.58 43.81L23.39 43.81C23.39 30.2 23.39 22.64 23.39 21.13C23.39 21.13 27.08 21.13 28.77 21.14C29.7 20.03 32.1 17.19 32.37 16.88C32.37 18.67 32.37 27.65 32.37 43.81L37.33 43.81C37.33 37.08 37.33 33.34 37.33 32.59C37.47 32.59 39.48 32.68 40.37 32.7C42.66 36.24 47.33 43.46 47.57 43.84C48.62 43.84 57.02 43.84 58.07 43.84C58.07 43.84 64.4 25.23 64.54 24.79C64.59 24.91 70.04 40.8 71.16 43.83C73 43.83 74.85 43.85 76.69 43.85C78.15 43.85 79.61 43.85 81.07 43.85C81.07 42.18 81.07 28.85 81.07 27.19C81.16 27.29 81.2 27.33 81.24 27.38C83.35 30.14 94.16 44.21 94.16 44.21C94.29 44.21 94.93 44.21 96.1 44.2L96.1 16.9L91.49 16.9C91.49 26.61 91.49 32.01 91.49 33.09ZM38.69 28.61C38.3 28.6 37.33 28.52 37.33 28.52C37.33 28.51 37.33 28.45 37.33 28.34L37.33 21.15C37.33 21.06 37.33 21.01 37.33 21C37.33 21 38.17 20.95 38.58 20.94C40.01 20.91 41.44 20.95 42.82 21.39C43.23 21.51 43.62 21.7 43.98 21.93C44.65 22.36 44.98 23.02 45.09 23.79C45.22 24.67 45.15 25.53 44.86 26.37C44.52 27.36 43.78 27.91 42.82 28.2C41.47 28.61 40.08 28.66 38.69 28.61Z" id="as7vYSQMj"></path><path d="M113.67 30.29C113.68 38.11 120.01 44.17 127.47 44.27C135.28 44.36 141.59 38.07 141.66 30.44C141.74 22.78 135.56 16.32 127.67 16.32C119.91 16.31 113.68 22.58 113.67 30.29ZM129.25 21.93C129.25 21.92 129.26 21.89 129.27 21.87C129.51 21.92 129.75 21.97 129.98 22.03C129.98 22.03 129.98 22.03 129.98 22.04C130.1 22.07 130.22 22.11 130.33 22.14C130.53 22.2 130.73 22.28 130.92 22.36C131.01 22.39 131.09 22.43 131.17 22.46C131.31 22.52 131.45 22.59 131.59 22.66C131.59 22.66 131.59 22.66 131.59 22.66C131.7 22.72 131.81 22.78 131.92 22.85C132.03 22.9 132.13 22.97 132.24 23.04C132.31 23.08 132.38 23.13 132.45 23.17C132.52 23.22 132.59 23.27 132.65 23.32C133.2 23.71 133.71 24.17 134.18 24.71C133.82 24.92 133.48 25.11 133.14 25.31C132.61 25.61 132.09 25.91 131.57 26.21C131.56 26.22 131.55 26.23 131.54 26.23C131.49 26.26 131.43 26.29 131.38 26.32C131.32 26.36 131.26 26.38 131.2 26.41C130.44 26.72 129.61 26.36 129.34 25.63C129.33 25.6 129.33 25.58 129.32 25.55C129.28 25.42 129.25 25.29 129.25 25.15C129.22 24.09 129.24 23.02 129.24 21.96C129.24 21.95 129.24 21.94 129.25 21.93ZM125.31 22.05C125.36 22.04 125.4 22.02 125.45 22.01C125.59 21.97 125.73 21.94 125.88 21.91C125.94 21.89 126.01 21.88 126.08 21.86C126.09 21.91 126.09 21.96 126.09 22C126.09 22 126.09 22.01 126.09 22.01C126.09 22.04 126.1 22.07 126.1 22.11C126.1 22.19 126.1 22.83 126.1 22.91C126.1 23.39 126.1 23.87 126.1 24.34C126.1 24.4 126.1 24.46 126.1 24.52C126.1 24.7 126.1 24.88 126.1 25.06C126.1 25.17 126.09 25.27 126.07 25.37C126.06 25.4 126.05 25.44 126.05 25.47C126.04 25.5 126.03 25.54 126.02 25.57C126.01 25.6 126 25.63 125.99 25.66C125.98 25.7 125.96 25.72 125.95 25.75C125.95 25.76 125.95 25.76 125.94 25.76C125.93 25.79 125.92 25.81 125.91 25.83C125.9 25.84 125.9 25.84 125.9 25.85C125.88 25.87 125.87 25.89 125.86 25.91C125.85 25.92 125.85 25.92 125.84 25.93C125.83 25.95 125.82 25.97 125.8 25.99C125.8 25.99 125.8 25.99 125.8 25.99C125.8 26 125.79 26.01 125.78 26.01C125.76 26.04 125.74 26.06 125.72 26.09C125.7 26.11 125.68 26.13 125.65 26.16C125.63 26.18 125.6 26.2 125.57 26.22C125.54 26.25 125.5 26.28 125.46 26.3C125.43 26.33 125.39 26.35 125.35 26.37C125.32 26.38 125.29 26.4 125.25 26.41C125.22 26.42 125.18 26.44 125.14 26.45C125.12 26.46 125.11 26.46 125.09 26.46C125.07 26.47 125.04 26.48 125.02 26.48C124.98 26.49 124.95 26.5 124.91 26.5C124.7 26.53 124.45 26.52 124.24 26.44C124.22 26.44 124.2 26.43 124.19 26.42C124.15 26.41 124.12 26.4 124.09 26.38C124 26.33 123.9 26.28 123.82 26.23C123.8 26.22 123.78 26.21 123.77 26.2C123.14 25.86 122.52 25.5 121.91 25.15C121.78 25.08 121.66 25 121.53 24.93C121.43 24.87 121.33 24.81 121.23 24.76C121.22 24.74 121.2 24.72 121.18 24.69C122.24 23.48 123.51 22.63 125.01 22.14C125.11 22.11 125.21 22.08 125.31 22.05ZM119.57 27.44C120.57 28.02 121.54 28.55 122.48 29.14C122.52 29.17 122.57 29.19 122.6 29.23C122.62 29.24 122.64 29.26 122.66 29.27C122.7 29.3 122.73 29.33 122.75 29.36C122.76 29.37 122.77 29.38 122.78 29.39C122.78 29.4 122.79 29.4 122.8 29.41C122.82 29.44 122.85 29.47 122.87 29.5C122.87 29.5 122.87 29.51 122.87 29.51C122.9 29.55 122.93 29.6 122.96 29.65C122.98 29.7 123.01 29.75 123.03 29.8C123.07 29.91 123.1 30.01 123.11 30.13C123.11 30.18 123.12 30.23 123.12 30.29C123.12 30.34 123.11 30.39 123.11 30.43C123.1 30.46 123.1 30.48 123.09 30.51C123.1 30.51 123.1 30.52 123.09 30.52C123.09 30.54 123.09 30.56 123.08 30.58C123.08 30.59 123.08 30.59 123.08 30.59C123.08 30.61 123.07 30.64 123.06 30.66C123.04 30.75 123.01 30.84 122.97 30.92C122.87 31.11 122.72 31.28 122.53 31.4C121.58 32.02 120.58 32.56 119.57 33.14C119.57 33.14 119.57 33.14 119.57 33.14L119.57 33.14C119.14 30.62 119.14 28.72 119.57 27.44ZM126.09 38.71C125.84 38.66 125.6 38.61 125.36 38.54C125.26 38.52 125.16 38.48 125.05 38.45C124.96 38.42 124.86 38.39 124.77 38.36C124.76 38.36 124.76 38.35 124.75 38.35C124.66 38.32 124.58 38.28 124.49 38.25C124.17 38.12 123.86 37.98 123.57 37.82C122.68 37.33 121.88 36.68 121.15 35.87C121.3 35.79 121.43 35.72 121.55 35.64C122.27 35.23 122.99 34.81 123.71 34.4C123.72 34.39 123.72 34.39 123.73 34.38C123.8 34.35 123.86 34.31 123.92 34.28C123.97 34.25 124.02 34.22 124.08 34.2C124.09 34.19 124.11 34.18 124.12 34.18C124.46 34.04 124.8 34.02 125.1 34.1C125.14 34.11 125.18 34.13 125.22 34.15C125.25 34.16 125.28 34.17 125.31 34.18C125.35 34.2 125.38 34.22 125.42 34.24C125.46 34.27 125.49 34.29 125.52 34.31C125.56 34.33 125.59 34.36 125.62 34.39C125.65 34.41 125.68 34.44 125.71 34.47C125.74 34.51 125.77 34.54 125.79 34.57C125.81 34.59 125.82 34.61 125.84 34.64C125.85 34.66 125.87 34.68 125.88 34.7C125.9 34.74 125.92 34.78 125.94 34.82C125.97 34.87 125.99 34.92 126.01 34.98C126.01 35.01 126.02 35.03 126.03 35.06C126.03 35.06 126.03 35.07 126.03 35.07C126.05 35.16 126.07 35.26 126.07 35.36C126.14 36.46 126.09 37.57 126.09 38.71C126.09 38.71 126.09 38.71 126.09 38.71ZM127.68 27.35C129.26 27.33 130.67 28.69 130.61 30.39C130.56 31.98 129.2 33.28 127.55 33.24C126.02 33.2 124.72 31.86 124.72 30.27C124.73 28.65 126.05 27.34 127.68 27.35ZM129.24 36.53C129.24 36.52 129.24 36.52 129.24 36.52C129.24 36.52 129.24 36.52 129.24 36.52C129.24 36.51 129.24 36.51 129.24 36.51C129.24 36.51 129.24 36.5 129.24 36.5C129.24 36.48 129.24 36.45 129.24 36.43C129.24 36.34 129.24 35.66 129.24 35.57C129.24 35.45 129.25 35.33 129.27 35.23C129.27 35.22 129.27 35.22 129.27 35.22C129.45 34.33 130.24 33.86 131.08 34.13C131.09 34.13 131.09 34.13 131.1 34.13C131.21 34.17 131.33 34.22 131.45 34.29C131.61 34.39 131.78 34.48 131.95 34.58C131.96 34.58 131.96 34.59 131.97 34.6C132.61 34.96 133.24 35.33 133.88 35.7C133.94 35.73 134 35.76 134.06 35.8C134.09 35.82 134.13 35.84 134.18 35.87C132.84 37.38 131.22 38.32 129.25 38.72C129.24 38.72 129.24 38.72 129.24 38.72C129.24 38.57 129.24 37.84 129.24 36.53C129.24 36.53 129.24 36.53 129.24 36.53ZM136.24 30.84C136.24 30.84 136.24 30.84 136.24 30.84C136.23 30.92 136.22 30.99 136.22 31.07C136.19 31.4 136.13 31.73 136.06 32.07C136.04 32.17 136.02 32.27 135.99 32.37C135.99 32.39 135.99 32.41 135.98 32.43C135.92 32.66 135.85 32.89 135.77 33.13C135.59 33.03 135.42 32.93 135.26 32.84C134.54 32.43 133.81 32.01 133.08 31.58C133.07 31.58 133.06 31.57 133.05 31.57C133.03 31.56 133.01 31.55 132.99 31.53C132.95 31.51 132.91 31.48 132.87 31.46C132.87 31.45 132.86 31.45 132.85 31.44C132.84 31.44 132.83 31.43 132.81 31.42C132.08 30.86 132.04 29.89 132.69 29.28C132.69 29.28 132.69 29.28 132.69 29.28C132.69 29.27 132.69 29.27 132.69 29.27C132.71 29.26 132.73 29.24 132.75 29.23C132.82 29.16 132.91 29.11 133 29.05C133.14 28.96 133.28 28.89 133.42 28.8C133.43 28.8 133.44 28.79 133.46 28.78C133.94 28.5 134.42 28.23 134.91 27.95C135.07 27.86 135.23 27.76 135.39 27.67C135.45 27.63 135.5 27.6 135.56 27.57C135.57 27.56 135.59 27.55 135.6 27.55C135.62 27.54 135.63 27.53 135.64 27.53C135.65 27.52 135.67 27.51 135.68 27.51C135.71 27.49 135.74 27.48 135.77 27.46C135.77 27.46 135.77 27.46 135.77 27.46C135.79 27.52 135.81 27.57 135.83 27.63C135.85 27.69 135.87 27.74 135.88 27.8C135.95 28.04 136.02 28.28 136.07 28.52C136.09 28.64 136.11 28.75 136.13 28.86C136.17 29.05 136.19 29.23 136.21 29.42C136.22 29.49 136.23 29.56 136.23 29.64C136.24 29.75 136.25 29.87 136.25 29.98C136.26 30.09 136.26 30.18 136.26 30.28C136.26 30.39 136.25 30.5 136.25 30.61C136.25 30.69 136.24 30.76 136.24 30.84Z" id="b5eMdNsgm"></path><path d="M109.4 21.35C108.19 20.75 106.91 20.47 105.56 20.49C104.65 20.5 103.81 20.71 103.12 21.34C102.21 22.16 101.83 23.79 102.59 24.95C103.05 25.65 103.65 26.19 104.31 26.68C105.28 27.4 106.34 27.96 107.42 28.49C108.55 29.05 109.67 29.64 110.67 30.41C112.42 31.77 113.4 33.55 113.63 35.75C113.78 37.21 113.65 38.64 112.94 39.96C112.14 41.46 110.92 42.51 109.41 43.24C107.94 43.95 106.37 44.22 104.77 44.28C102.7 44.36 100.7 44.03 98.81 43.15C98.36 42.93 97.93 42.67 97.49 42.44C97.39 42.39 97.33 42.33 97.39 42.2C97.96 40.84 98.52 39.47 99.08 38.11C99.09 38.1 99.1 38.09 99.11 38.08C99.62 38.38 100.12 38.7 100.65 38.98C102.47 39.93 104.39 40.27 106.41 39.87C107.1 39.74 107.73 39.5 108.22 38.98C108.83 38.35 108.98 37.57 108.89 36.73C108.74 35.42 108.05 34.42 107.05 33.62C106 32.78 104.81 32.16 103.62 31.56C102.41 30.95 101.2 30.33 100.12 29.5C98.54 28.3 97.69 26.68 97.46 24.73C97.3 23.42 97.38 22.14 97.92 20.92C98.82 18.87 100.4 17.57 102.5 16.86C103.38 16.56 104.3 16.43 105.24 16.42C106.8 16.39 108.35 16.49 109.86 16.9C110.72 17.14 111.53 17.49 112.26 18C112.41 18.11 112.45 18.21 112.38 18.39C111.93 19.63 111.49 20.87 111.06 22.11C111.03 22.16 111.01 22.21 111 22.25C110.46 21.95 109.94 21.62 109.4 21.35Z" id="b2ym5AN5Ne"></path><path d="M130.61 30.39C130.56 31.97 129.2 33.27 127.55 33.23C126.02 33.19 124.72 31.86 124.72 30.27C124.72 28.65 126.04 27.34 127.68 27.35C129.26 27.33 130.67 28.69 130.61 30.39Z" id="d1sdKYT7Am"></path><path d="M52.91 43.84C52.06 43.84 50.79 43.84 49.72 43.83C50.14 43.83 52.25 43.83 56.03 43.83C54.49 43.84 53.45 43.84 52.91 43.84Z" id="i1g8jSryj"></path><path d="M143.95 28.52C143.13 20.95 137.14 14.93 129.58 14.05C129.58 13.65 129.58 10.41 129.58 10C139.37 10.91 147.16 18.73 148 28.52C147.19 28.52 144.35 28.52 143.95 28.52Z" id="a1acn6yQOw"></path></defs><g><g><g><use xlink:href="#gk4Rc6DDk" opacity="1" fill="#faad26" fill-opacity="1"></use><g><use xlink:href="#gk4Rc6DDk" opacity="1" fill-opacity="0" stroke="#000000" stroke-width="1" stroke-opacity="0"></use></g></g><g><use xlink:href="#bb6AuuK7VT" opacity="1" fill="#faad26" fill-opacity="1"></use><g><use xlink:href="#bb6AuuK7VT" opacity="1" fill-opacity="0" stroke="#000000" stroke-width="1" stroke-opacity="0"></use></g></g><g><use xlink:href="#dSVwSym2A" opacity="1" fill="#faad26" fill-opacity="1"></use><g><use xlink:href="#dSVwSym2A" opacity="1" fill-opacity="0" stroke="#000000" stroke-width="1" stroke-opacity="0"></use></g></g><g><use xlink:href="#b2yTD1epRi" opacity="1" fill="#faad26" fill-opacity="1"></use><g><use xlink:href="#b2yTD1epRi" opacity="1" fill-opacity="0" stroke="#000000" stroke-width="1" stroke-opacity="0"></use></g></g><g><use xlink:href="#b70X9dlgE" opacity="1" fill="#faad26" fill-opacity="1"></use><g><use xlink:href="#b70X9dlgE" opacity="1" fill-opacity="0" stroke="#000000" stroke-width="1" stroke-opacity="0"></use></g></g><g><use xlink:href="#c12OEShCji" opacity="1" fill="#faad26" fill-opacity="1"></use><g><use xlink:href="#c12OEShCji" opacity="1" fill-opacity="0" stroke="#000000" stroke-width="1" stroke-opacity="0"></use></g></g><g><use xlink:href="#hIQg0DHoQ" opacity="1" fill="#faad26" fill-opacity="1"></use><g><use xlink:href="#hIQg0DHoQ" opacity="1" fill-opacity="0" stroke="#000000" stroke-width="1" stroke-opacity="0"></use></g></g><g><use xlink:href="#a2BL3qIiMr" opacity="1" fill="#faad26" fill-opacity="1"></use><g><use xlink:href="#a2BL3qIiMr" opacity="1" fill-opacity="0" stroke="#000000" stroke-width="1" stroke-opacity="0"></use></g></g><g><use xlink:href="#a1ZQEzdBW" opacity="1" fill="#faad26" fill-opacity="1"></use><g><use xlink:href="#a1ZQEzdBW" opacity="1" fill-opacity="0" stroke="#000000" stroke-width="1" stroke-opacity="0"></use></g></g><g><use xlink:href="#f2O5g7B29w" opacity="1" fill="#faad26" fill-opacity="1"></use><g><use xlink:href="#f2O5g7B29w" opacity="1" fill-opacity="0" stroke="#000000" stroke-width="1" stroke-opacity="0"></use></g></g><g><use xlink:href="#a2hdG7e9Nw" opacity="1" fill="#faad26" fill-opacity="1"></use><g><use xlink:href="#a2hdG7e9Nw" opacity="1" fill-opacity="0" stroke="#000000" stroke-width="1" stroke-opacity="0"></use></g></g><g><use xlink:href="#a4397sNCOa" opacity="1" fill="#faad26" fill-opacity="1"></use><g><use xlink:href="#a4397sNCOa" opacity="1" fill-opacity="0" stroke="#000000" stroke-width="1" stroke-opacity="0"></use></g></g><g><use xlink:href="#c5kFlozq1e" opacity="1" fill="#faad26" fill-opacity="1"></use><g><use xlink:href="#c5kFlozq1e" opacity="1" fill-opacity="0" stroke="#000000" stroke-width="1" stroke-opacity="0"></use></g></g><g><use xlink:href="#ezl07l8di" opacity="1" fill="#faad26" fill-opacity="1"></use><g><use xlink:href="#ezl07l8di" opacity="1" fill-opacity="0" stroke="#000000" stroke-width="1" stroke-opacity="0"></use></g></g><g><use xlink:href="#e1EJ8Uagae" opacity="1" fill="#faad26" fill-opacity="1"></use><g><use xlink:href="#e1EJ8Uagae" opacity="1" fill-opacity="0" stroke="#000000" stroke-width="1" stroke-opacity="0"></use></g></g><g><use xlink:href="#gWIlPWEhf" opacity="1" fill="#faad26" fill-opacity="1"></use><g><use xlink:href="#gWIlPWEhf" opacity="1" fill-opacity="0" stroke="#000000" stroke-width="1" stroke-opacity="0"></use></g></g><g><use xlink:href="#a2LRaoZfcX" opacity="1" fill="#faad26" fill-opacity="1"></use><g><use xlink:href="#a2LRaoZfcX" opacity="1" fill-opacity="0" stroke="#000000" stroke-width="1" stroke-opacity="0"></use></g></g><g><use xlink:href="#fWKvKo7rQ" opacity="1" fill="#faad26" fill-opacity="1"></use><g><use xlink:href="#fWKvKo7rQ" opacity="1" fill-opacity="0" stroke="#000000" stroke-width="1" stroke-opacity="0"></use></g></g><g><use xlink:href="#kLPuzYshM" opacity="1" fill="#faad26" fill-opacity="1"></use><g><use xlink:href="#kLPuzYshM" opacity="1" fill-opacity="0" stroke="#000000" stroke-width="1" stroke-opacity="0"></use></g></g><g><use xlink:href="#a2cInePM50" opacity="1" fill="#faad26" fill-opacity="1"></use><g><use xlink:href="#a2cInePM50" opacity="1" fill-opacity="0" stroke="#000000" stroke-width="1" stroke-opacity="0"></use></g></g><g><use xlink:href="#as7vYSQMj" opacity="1" fill="#ffffff" fill-opacity="1"></use><g><use xlink:href="#as7vYSQMj" opacity="1" fill-opacity="0" stroke="#000000" stroke-width="1" stroke-opacity="0"></use></g></g><g><use xlink:href="#b5eMdNsgm" opacity="1" fill="#ffffff" fill-opacity="1"></use><g><use xlink:href="#b5eMdNsgm" opacity="1" fill-opacity="0" stroke="#000000" stroke-width="1" stroke-opacity="0"></use></g></g><g><use xlink:href="#b2ym5AN5Ne" opacity="1" fill="#ffffff" fill-opacity="1"></use><g><use xlink:href="#b2ym5AN5Ne" opacity="1" fill-opacity="0" stroke="#000000" stroke-width="1" stroke-opacity="0"></use></g></g><g><use xlink:href="#d1sdKYT7Am" opacity="1" fill="#faad26" fill-opacity="1"></use><g><use xlink:href="#d1sdKYT7Am" opacity="1" fill-opacity="0" stroke="#000000" stroke-width="1" stroke-opacity="0"></use></g></g><g><use xlink:href="#i1g8jSryj" opacity="1" fill="#3a3a3c" fill-opacity="1"></use><g><use xlink:href="#i1g8jSryj" opacity="1" fill-opacity="0" stroke="#000000" stroke-width="1" stroke-opacity="0"></use></g></g><g><use xlink:href="#a1acn6yQOw" opacity="1" fill="#faad26" fill-opacity="1"></use><g><use xlink:href="#a1acn6yQOw" opacity="1" fill-opacity="0" stroke="#000000" stroke-width="1" stroke-opacity="0"></use></g></g></g></g></svg>