<svg width="138" height="44" viewBox="0 0 138 44" fill="none" xmlns="http://www.w3.org/2000/svg">
<g clip-path="url(#clip0)">
<path d="M9.56354 38.7591H10.7583V42.9398H13.3463V43.9109H9.56354V38.7591Z" fill="#FAAD26"/>
<path d="M15.7905 43.6545C15.3606 43.4236 15.0237 43.1053 14.7797 42.7016C14.5356 42.2961 14.4154 41.8415 14.4154 41.3359C14.4154 40.8304 14.5374 40.3758 14.7797 39.9703C15.0237 39.5647 15.3588 39.2483 15.7905 39.0174C16.2221 38.7864 16.7029 38.6719 17.2402 38.6719C17.7757 38.6719 18.2583 38.7864 18.6845 39.0174C19.1107 39.2483 19.4494 39.5666 19.6953 39.9703C19.9412 40.3758 20.0632 40.8304 20.0632 41.3359C20.0632 41.8415 19.9393 42.2961 19.6953 42.7016C19.4494 43.1072 19.1125 43.4236 18.6845 43.6545C18.2565 43.8855 17.7757 44 17.2402 44C16.7029 44 16.2203 43.8855 15.7905 43.6545ZM18.0652 42.7744C18.3111 42.6343 18.5042 42.4398 18.6444 42.1888C18.7846 41.9379 18.8539 41.6542 18.8539 41.3341C18.8539 41.0141 18.7846 40.7304 18.6444 40.4794C18.5042 40.2285 18.3111 40.0339 18.0652 39.8939C17.8194 39.7539 17.5444 39.6848 17.2402 39.6848C16.9361 39.6848 16.661 39.7539 16.4152 39.8939C16.1693 40.0339 15.9762 40.2285 15.836 40.4794C15.6958 40.7304 15.6266 41.0141 15.6266 41.3341C15.6266 41.6542 15.6958 41.9379 15.836 42.1888C15.9762 42.4398 16.1693 42.6343 16.4152 42.7744C16.661 42.9144 16.9361 42.9835 17.2402 42.9835C17.5444 42.9853 17.8194 42.9144 18.0652 42.7744Z" fill="#FAAD26"/>
<path d="M25.2611 41.2541H26.352V43.3454C26.0716 43.5563 25.7474 43.7182 25.3795 43.8309C25.0116 43.9437 24.64 44 24.2667 44C23.7312 44 23.2486 43.8855 22.8224 43.6582C22.3944 43.429 22.0593 43.1144 21.8152 42.7089C21.5712 42.3034 21.451 41.8469 21.451 41.3359C21.451 40.825 21.573 40.3685 21.8152 39.963C22.0593 39.5575 22.3962 39.2411 22.8297 39.0137C23.2613 38.7846 23.7494 38.6719 24.2904 38.6719C24.742 38.6719 25.1536 38.7483 25.5215 38.901C25.8894 39.0538 26.1991 39.2738 26.4504 39.5629L25.6836 40.2703C25.3157 39.883 24.8695 39.6884 24.3486 39.6884C24.019 39.6884 23.7276 39.7575 23.4708 39.8939C23.2158 40.0321 23.0155 40.2249 22.8734 40.4758C22.7313 40.7268 22.6603 41.0141 22.6603 41.3378C22.6603 41.656 22.7313 41.9415 22.8734 42.1925C23.0155 42.4434 23.214 42.638 23.4671 42.778C23.7203 42.918 24.0099 42.9871 24.3341 42.9871C24.6783 42.9871 24.9879 42.9144 25.2629 42.7671V41.2541H25.2611Z" fill="#FAAD26"/>
<path d="M28.2681 38.7591H29.4628V43.9127H28.2681V38.7591Z" fill="#FAAD26"/>
<path d="M32.0108 43.8345C31.6301 43.7236 31.3241 43.5799 31.0928 43.4036L31.499 42.5052C31.7194 42.6671 31.9834 42.798 32.2876 42.8944C32.5917 42.9926 32.8977 43.0417 33.2019 43.0417C33.5406 43.0417 33.792 42.9908 33.9541 42.8907C34.1162 42.7907 34.1981 42.6562 34.1981 42.4889C34.1981 42.367 34.1508 42.2652 34.0542 42.1834C33.9577 42.1015 33.8357 42.0379 33.6863 41.9888C33.537 41.9397 33.333 41.8851 33.078 41.8269C32.6846 41.7342 32.3623 41.6396 32.1128 41.5469C31.8614 41.4541 31.6465 41.3032 31.468 41.0977C31.2877 40.8922 31.1985 40.6176 31.1985 40.2739C31.1985 39.9739 31.2786 39.7029 31.4425 39.4611C31.6046 39.2174 31.8487 39.0265 32.1765 38.8828C32.5025 38.741 32.9032 38.67 33.3749 38.67C33.7046 38.67 34.0269 38.7101 34.3402 38.7882C34.6553 38.8664 34.9303 38.9792 35.1652 39.1265L34.7973 40.0321C34.3201 39.763 33.843 39.6266 33.3676 39.6266C33.0325 39.6266 32.7866 39.6811 32.6264 39.7884C32.4661 39.8957 32.3859 40.0394 32.3859 40.2158C32.3859 40.3921 32.4788 40.5231 32.6628 40.6104C32.8467 40.6958 33.129 40.7813 33.5079 40.865C33.9013 40.9577 34.2236 41.0523 34.4731 41.145C34.7245 41.2377 34.9394 41.385 35.1179 41.5869C35.2964 41.7887 35.3874 42.0615 35.3874 42.4034C35.3874 42.698 35.3055 42.9671 35.1397 43.209C34.9758 43.4527 34.7281 43.6454 34.3985 43.7873C34.0688 43.9291 33.6681 44 33.1964 44C32.7866 44 32.3914 43.9455 32.0108 43.8345Z" fill="#FAAD26"/>
<path d="M38.0083 39.7302H36.3564V38.7591H40.8531V39.7302H39.2012V43.9109H38.0064V39.7302H38.0083Z" fill="#FAAD26"/>
<path d="M42.3065 38.7591H43.5012V43.9127H42.3065V38.7591Z" fill="#FAAD26"/>
<path d="M46.5791 43.6582C46.1548 43.429 45.8197 43.1144 45.5756 42.7089C45.3316 42.3034 45.2114 41.8469 45.2114 41.3359C45.2114 40.825 45.3334 40.3685 45.5756 39.963C45.8197 39.5575 46.153 39.2411 46.5791 39.0137C47.0035 38.7846 47.4825 38.6719 48.0125 38.6719C48.4605 38.6719 48.8648 38.7501 49.2255 38.9083C49.5861 39.0647 49.8902 39.292 50.1361 39.5848L49.3693 40.2921C49.0197 39.8903 48.588 39.6884 48.0726 39.6884C47.7539 39.6884 47.4679 39.7575 47.2166 39.8975C46.9653 40.0376 46.7704 40.2321 46.6301 40.4831C46.4899 40.734 46.4207 41.0177 46.4207 41.3378C46.4207 41.6578 46.4899 41.9415 46.6301 42.1925C46.7704 42.4434 46.9653 42.638 47.2166 42.778C47.4679 42.918 47.752 42.9871 48.0726 42.9871C48.588 42.9871 49.0215 42.7835 49.3693 42.3761L50.1361 43.0835C49.8902 43.3836 49.5861 43.6109 49.2218 43.7691C48.8576 43.9255 48.4532 44.0037 48.0052 44.0037C47.4807 44 47.0035 43.8855 46.5791 43.6582Z" fill="#FAAD26"/>
<path d="M52.2197 43.8345C51.839 43.7236 51.533 43.5799 51.3017 43.4036L51.7079 42.5052C51.9282 42.6671 52.1923 42.798 52.4965 42.8944C52.8006 42.9926 53.1066 43.0417 53.4108 43.0417C53.7495 43.0417 54.0009 42.9908 54.163 42.8907C54.325 42.7907 54.407 42.6562 54.407 42.4889C54.407 42.367 54.3597 42.2652 54.2631 42.1834C54.1666 42.1015 54.0446 42.0379 53.8952 41.9888C53.7459 41.9397 53.5419 41.8851 53.2869 41.8269C52.8935 41.7342 52.5712 41.6396 52.3216 41.5469C52.0703 41.4541 51.8554 41.3032 51.6769 41.0977C51.4966 40.8922 51.4074 40.6176 51.4074 40.2739C51.4074 39.9739 51.4875 39.7029 51.6514 39.4611C51.8135 39.2174 52.0576 39.0265 52.3854 38.8828C52.7114 38.741 53.1121 38.67 53.5838 38.67C53.9134 38.67 54.2358 38.7101 54.5491 38.7882C54.8641 38.8664 55.1392 38.9792 55.3741 39.1265L55.0062 40.0321C54.529 39.763 54.0519 39.6266 53.5765 39.6266C53.2414 39.6266 52.9955 39.6811 52.8352 39.7884C52.675 39.8957 52.5948 40.0394 52.5948 40.2158C52.5948 40.3921 52.6877 40.5231 52.8717 40.6104C53.0556 40.6958 53.3379 40.7813 53.7167 40.865C54.1101 40.9577 54.4325 41.0523 54.682 41.145C54.9334 41.2377 55.1483 41.385 55.3267 41.5869C55.5052 41.7887 55.5963 42.0615 55.5963 42.4034C55.5963 42.698 55.5143 42.9671 55.3486 43.209C55.1847 43.4527 54.937 43.6454 54.6073 43.7873C54.2777 43.9291 53.877 44 53.4053 44C52.9955 44 52.6003 43.9455 52.2197 43.8345Z" fill="#FAAD26"/>
<path d="M64.8156 43.9127L64.8083 40.8213L63.2894 43.369H62.7503L61.2386 40.8886V43.9146H60.1185V38.761H61.1057L63.038 41.9633L64.9395 38.761H65.9193L65.9339 43.9146H64.8156V43.9127Z" fill="#FAAD26"/>
<path d="M71.3704 42.8071H68.9736L68.5164 43.9109H67.2925L69.5928 38.7573H70.773L73.0806 43.9109H71.8275L71.3704 42.8071ZM70.9952 41.9015L70.1774 39.9284L69.3597 41.9015H70.9952Z" fill="#FAAD26"/>
<path d="M74.4301 38.7591H76.7741C77.3351 38.7591 77.8304 38.8664 78.2603 39.0792C78.6901 39.2919 79.0252 39.5938 79.2638 39.9811C79.5024 40.3685 79.6208 40.8195 79.6208 41.3359C79.6208 41.8505 79.5024 42.3033 79.2638 42.6907C79.0252 43.078 78.6919 43.3799 78.2603 43.5927C77.8304 43.8054 77.3351 43.9127 76.7741 43.9127H74.4301V38.7591ZM76.7158 42.9325C77.2312 42.9325 77.6428 42.7889 77.9506 42.5016C78.2584 42.2142 78.4114 41.8251 78.4114 41.3341C78.4114 40.8431 78.2584 40.454 77.9506 40.1666C77.6428 39.8793 77.2312 39.7356 76.7158 39.7356H75.6249V42.9307H76.7158V42.9325Z" fill="#FAAD26"/>
<path d="M85.3269 42.9544V43.9109H81.331V38.7573H85.2303V39.7138H82.5166V40.8322H84.9134V41.7596H82.5166V42.9526H85.3269V42.9544Z" fill="#FAAD26"/>
<path d="M90.4993 43.8345C90.1186 43.7236 89.8127 43.5799 89.5814 43.4036L89.9875 42.5052C90.2079 42.6671 90.472 42.798 90.7761 42.8944C91.0803 42.9926 91.3863 43.0417 91.6904 43.0417C92.0292 43.0417 92.2805 42.9908 92.4426 42.8907C92.6047 42.7907 92.6866 42.6562 92.6866 42.4889C92.6866 42.367 92.6393 42.2652 92.5428 42.1834C92.4462 42.1015 92.3242 42.0379 92.1749 41.9888C92.0255 41.9397 91.8215 41.8851 91.5666 41.8269C91.1732 41.7342 90.8508 41.6396 90.6013 41.5469C90.3499 41.4541 90.135 41.3032 89.9565 41.0977C89.7762 40.8922 89.687 40.6176 89.687 40.2739C89.687 39.9739 89.7671 39.7029 89.931 39.4611C90.0931 39.2174 90.3372 39.0265 90.665 38.8828C90.991 38.741 91.3917 38.67 91.8634 38.67C92.1931 38.67 92.5154 38.7101 92.8287 38.7882C93.1438 38.8664 93.4188 38.9792 93.6537 39.1265L93.2858 40.0321C92.8087 39.763 92.3315 39.6266 91.8561 39.6266C91.521 39.6266 91.2752 39.6811 91.1149 39.7884C90.9546 39.8957 90.8745 40.0394 90.8745 40.2158C90.8745 40.3921 90.9674 40.5231 91.1513 40.6104C91.3353 40.6958 91.6176 40.7813 91.9964 40.865C92.3898 40.9577 92.7121 41.0523 92.9617 41.145C93.213 41.2377 93.4279 41.385 93.6064 41.5869C93.7849 41.7887 93.8759 42.0615 93.8759 42.4034C93.8759 42.698 93.794 42.9671 93.6282 43.209C93.4643 43.4527 93.2166 43.6454 92.887 43.7873C92.5573 43.9291 92.1567 44 91.6849 44C91.2752 44 90.8799 43.9455 90.4993 43.8345Z" fill="#FAAD26"/>
<path d="M100.198 43.9127L100.19 40.8213L98.6713 43.369H98.1322L96.6206 40.8886V43.9146H95.5005V38.761H96.4876L98.42 41.9633L100.321 38.761H101.301L101.316 43.9146H100.198V43.9127Z" fill="#FAAD26"/>
<path d="M106.752 42.8071H104.356L103.898 43.9109H102.675L104.975 38.7573H106.155L108.463 43.9109H107.21L106.752 42.8071ZM106.377 41.9015L105.559 39.9284L104.742 41.9015H106.377Z" fill="#FAAD26"/>
<path d="M113.101 43.9127L112.105 42.4779H112.047H111.007V43.9127H109.812V38.7591H112.047C112.504 38.7591 112.901 38.8355 113.238 38.9883C113.575 39.141 113.833 39.3556 114.016 39.6356C114.198 39.9157 114.289 40.2466 114.289 40.6303C114.289 41.014 114.196 41.3432 114.012 41.6196C113.828 41.8978 113.566 42.1088 113.227 42.2561L114.385 43.9127H113.101ZM112.799 39.963C112.611 39.8084 112.34 39.7302 111.981 39.7302H111.009V41.5269H111.981C112.34 41.5269 112.613 41.4487 112.799 41.2923C112.987 41.1359 113.079 40.914 113.079 40.6303C113.078 40.3394 112.985 40.1175 112.799 39.963Z" fill="#FAAD26"/>
<path d="M117.037 39.7302H115.385V38.7591H119.882V39.7302H118.23V43.9109H117.035V39.7302H117.037Z" fill="#FAAD26"/>
<path d="M125.333 42.9544V43.9109H121.337V38.7573H125.236V39.7138H122.523V40.8322H124.92V41.7596H122.523V42.9526H125.333V42.9544Z" fill="#FAAD26"/>
<path d="M130.383 43.9127L129.387 42.4779H129.329H128.289V43.9127H127.094V38.7591H129.329C129.786 38.7591 130.183 38.8355 130.52 38.9883C130.857 39.141 131.116 39.3556 131.298 39.6356C131.48 39.9157 131.571 40.2466 131.571 40.6303C131.571 41.014 131.478 41.3432 131.294 41.6196C131.11 41.8978 130.848 42.1088 130.509 42.2561L131.667 43.9127H130.383ZM130.081 39.963C129.894 39.8084 129.622 39.7302 129.263 39.7302H128.291V41.5269H129.263C129.622 41.5269 129.895 41.4487 130.081 41.2923C130.269 41.1359 130.362 40.914 130.362 40.6303C130.36 40.3394 130.267 40.1175 130.081 39.963Z" fill="#FAAD26"/>
<path d="M81.4931 6.89568V23.0929C81.402 22.9856 72.8347 12.0729 68.7896 6.89568H66.4511L66.4548 33.8292L55.6018 6.49197C55.6018 6.49197 54.1265 6.50652 53.4964 6.49197C52.6222 8.7378 42.9166 33.3455 42.8692 33.4583C40.2794 29.5158 37.7132 25.6097 35.1379 21.6927C35.2454 21.6472 35.331 21.609 35.4202 21.5726C36.3327 21.1908 37.1431 20.6489 37.8334 19.9415C39.3869 18.3521 40.1992 16.4609 40.1173 14.2114C40.0681 12.9003 39.8368 11.6437 39.1939 10.4854C38.3488 8.96329 37.0284 8.02495 35.4293 7.43213C33.7373 6.80657 31.9725 6.61381 30.1859 6.60108C29.033 6.59017 27.8819 6.63745 26.7291 6.67564C25.1263 6.72838 23.5218 6.85385 21.9191 6.85931C14.7214 6.88113 0.00728511 6.8684 0.00728511 6.8684V6.90477C0.00728511 6.90477 0.0127489 9.82525 0 11.1382C2.75924 11.1309 8.58368 11.1327 8.58368 11.1327V33.811H13.3919V11.1327C13.3919 11.1327 17.0836 11.1309 18.7737 11.1382C19.6989 10.0307 22.0994 7.19391 22.3653 6.87931V33.8129H27.3337V22.5892C27.474 22.5892 29.4774 22.6783 30.3716 22.6983C32.6628 26.2443 37.3307 33.4601 37.5748 33.8365H48.0726C48.0726 33.8365 54.4016 15.2261 54.5436 14.7897C54.5891 14.9061 60.0439 30.7978 61.1567 33.8347C63.0016 33.8329 64.8484 33.8456 66.6915 33.8474C68.1522 33.851 69.6092 33.8474 71.0699 33.8474V17.1865C71.1555 17.2883 71.1974 17.3319 71.2356 17.3829C73.3538 20.1415 84.1576 34.2075 84.1576 34.2075L86.1009 34.202V6.89568H81.4931ZM32.8158 18.2012C31.468 18.6122 30.082 18.6631 28.6869 18.6122C28.3008 18.5976 27.3264 18.5231 27.3264 18.5231V18.343L27.3283 11.1527L27.3319 11C27.3319 11 28.1661 10.9454 28.5777 10.9363C30.0092 10.9091 31.4389 10.9509 32.8212 11.3855C33.2256 11.5128 33.6226 11.7001 33.9796 11.9292C34.6462 12.3584 34.9795 13.0221 35.0905 13.7914C35.2199 14.6679 35.1488 15.5335 34.8592 16.3718C34.5187 17.361 33.7774 17.9066 32.8158 18.2012Z" fill="#3A3A3C"/>
<path d="M117.669 6.31558C109.912 6.31376 103.676 12.5766 103.667 20.2906C103.68 28.1065 110.014 34.1711 117.474 34.2657C125.278 34.3639 131.589 28.0683 131.664 20.4361C131.74 12.7785 125.564 6.31558 117.669 6.31558ZM119.243 11.9583C119.243 11.9511 119.244 11.9401 119.248 11.9311C119.25 11.9165 119.259 11.8947 119.266 11.8674C119.509 11.9165 119.745 11.9711 119.977 12.0347C119.978 12.0347 119.982 12.0347 119.984 12.0365C120.1 12.0693 120.215 12.1056 120.33 12.1402C120.53 12.2038 120.729 12.2766 120.922 12.3566C121.006 12.3893 121.088 12.4257 121.168 12.4602C121.31 12.5239 121.45 12.5893 121.587 12.6603C121.587 12.6621 121.587 12.6621 121.588 12.6603C121.7 12.7185 121.812 12.7803 121.92 12.8458C122.027 12.9039 122.133 12.9694 122.239 13.0367C122.31 13.0803 122.379 13.1258 122.448 13.1731C122.519 13.2185 122.588 13.2676 122.654 13.3186C123.198 13.7095 123.71 14.1714 124.182 14.7061C123.821 14.9152 123.477 15.1116 123.137 15.3098C122.612 15.6117 122.091 15.9135 121.565 16.2136C121.557 16.2209 121.547 16.2263 121.537 16.2281C121.486 16.259 121.434 16.29 121.383 16.3191C121.321 16.3554 121.261 16.3845 121.197 16.41C120.436 16.7246 119.609 16.3572 119.343 15.628C119.332 15.6026 119.325 15.5771 119.317 15.5517C119.277 15.4244 119.254 15.2898 119.248 15.148C119.221 14.0878 119.243 13.0221 119.243 11.9583ZM115.008 12.142C115.11 12.1093 115.212 12.0784 115.314 12.0474C115.358 12.0365 115.4 12.0238 115.447 12.0111C115.587 11.9729 115.731 11.9401 115.875 11.9074C115.942 11.891 116.01 11.8765 116.081 11.8638C116.086 11.9147 116.088 11.9583 116.092 11.9965V12.0111C116.094 12.0438 116.097 12.0747 116.097 12.1056V12.9112C116.097 13.3895 116.097 13.8659 116.095 14.3405C116.097 14.3987 116.095 14.4569 116.095 14.5151C116.097 14.6951 116.095 14.8752 116.095 15.057C116.095 15.1661 116.085 15.2698 116.065 15.3698C116.063 15.4025 116.054 15.4353 116.046 15.4662C116.039 15.4989 116.032 15.5353 116.019 15.568C116.008 15.6008 115.995 15.6335 115.986 15.6644C115.975 15.6953 115.963 15.7226 115.948 15.7499C115.948 15.7553 115.948 15.7608 115.942 15.7626C115.932 15.7862 115.919 15.8081 115.906 15.8317C115.901 15.8372 115.899 15.8426 115.895 15.8462C115.882 15.8699 115.87 15.8899 115.857 15.9117C115.851 15.9172 115.846 15.9244 115.842 15.9317C115.83 15.9499 115.817 15.9699 115.804 15.9881C115.804 15.9881 115.804 15.9899 115.802 15.9935C115.795 15.999 115.789 16.0063 115.784 16.0117C115.764 16.039 115.74 16.0645 115.718 16.0881C115.698 16.1117 115.675 16.1336 115.649 16.1572C115.626 16.1827 115.6 16.2027 115.573 16.2209C115.54 16.2518 115.502 16.2772 115.462 16.3027C115.425 16.3263 115.391 16.3463 115.351 16.3663C115.318 16.3845 115.285 16.3991 115.249 16.4118C115.216 16.4245 115.179 16.4373 115.141 16.45C115.123 16.4554 115.108 16.4609 115.092 16.4627C115.068 16.47 115.043 16.4754 115.021 16.4809C114.984 16.4882 114.946 16.4954 114.912 16.5009C114.699 16.5318 114.449 16.5154 114.24 16.4427C114.221 16.4373 114.203 16.43 114.187 16.4245C114.154 16.4118 114.121 16.3972 114.088 16.3791C113.997 16.33 113.904 16.2809 113.817 16.2318C113.799 16.2209 113.781 16.2118 113.766 16.2045C113.14 15.8608 112.524 15.5044 111.907 15.1461C111.783 15.0752 111.657 15.0007 111.53 14.9279C111.433 14.8697 111.333 14.8115 111.234 14.7552C111.216 14.7442 111.204 14.7188 111.176 14.6897C112.243 13.4804 113.513 12.6294 115.008 12.142ZM109.57 23.1365C108.916 21.229 108.921 19.3577 109.568 17.4429C110.568 18.0193 111.542 18.5503 112.484 19.1395C112.524 19.165 112.566 19.1923 112.604 19.225C112.624 19.2395 112.642 19.2559 112.662 19.2741C112.695 19.2995 112.726 19.3305 112.753 19.3632C112.761 19.3705 112.768 19.3777 112.777 19.3887C112.784 19.3959 112.792 19.4032 112.797 19.4123C112.824 19.4432 112.848 19.4705 112.868 19.5032C112.87 19.5032 112.87 19.505 112.87 19.505C112.903 19.5505 112.932 19.5996 112.956 19.6469C112.983 19.6978 113.007 19.7487 113.027 19.8014C113.067 19.9051 113.096 20.0142 113.105 20.127C113.112 20.1797 113.116 20.2342 113.116 20.287C113.116 20.3379 113.114 20.3852 113.105 20.4343C113.103 20.4597 113.099 20.4834 113.094 20.5088C113.096 20.5143 113.096 20.5197 113.094 20.5216C113.092 20.5416 113.089 20.5616 113.083 20.5834C113.083 20.5852 113.081 20.5889 113.081 20.5889C113.079 20.6143 113.07 20.6398 113.063 20.6634C113.039 20.7525 113.007 20.8362 112.967 20.918C112.87 21.1089 112.724 21.2762 112.529 21.4035C111.579 22.02 110.575 22.5564 109.568 23.1438V23.1365H109.57ZM116.086 28.7138H116.085C115.839 28.6647 115.596 28.6102 115.361 28.5429C115.258 28.5156 115.156 28.4847 115.052 28.452C114.955 28.4211 114.861 28.3883 114.768 28.3556C114.76 28.3556 114.755 28.3538 114.748 28.3483C114.662 28.3174 114.575 28.2847 114.491 28.2519C114.172 28.1246 113.864 27.981 113.568 27.821C112.677 27.3336 111.879 26.6826 111.154 25.8734C111.304 25.7879 111.426 25.7152 111.548 25.6442C112.271 25.2296 112.988 24.8132 113.71 24.3968C113.717 24.3913 113.724 24.3858 113.733 24.384C113.795 24.3477 113.857 24.3131 113.919 24.2767C113.97 24.2458 114.023 24.2204 114.077 24.1985C114.092 24.1913 114.105 24.184 114.121 24.1785C114.455 24.0385 114.795 24.0203 115.097 24.1022C115.141 24.1149 115.181 24.1294 115.221 24.1458C115.252 24.1567 115.283 24.1694 115.311 24.184C115.349 24.2022 115.383 24.2222 115.42 24.2422C115.456 24.2658 115.491 24.2876 115.524 24.3113C115.556 24.3349 115.589 24.3604 115.62 24.3895C115.653 24.4149 115.682 24.4422 115.709 24.4749C115.74 24.5059 115.766 24.5386 115.791 24.5713C115.81 24.5913 115.824 24.6113 115.837 24.635C115.851 24.655 115.868 24.6786 115.881 24.7004C115.904 24.7386 115.924 24.7768 115.942 24.8168C115.968 24.8696 115.988 24.9241 116.006 24.9823C116.012 25.0078 116.019 25.0332 116.026 25.0587C116.028 25.0605 116.028 25.066 116.028 25.0714C116.054 25.1623 116.068 25.2624 116.074 25.3642C116.137 26.4607 116.086 27.5664 116.086 28.7138ZM114.722 20.2743C114.728 18.6503 116.048 17.3429 117.676 17.3483C119.264 17.3338 120.671 18.6922 120.614 20.3888C120.561 21.9782 119.203 23.2784 117.549 23.2366C116.021 23.1984 114.719 21.8636 114.722 20.2743ZM119.241 26.528C119.239 26.5262 119.239 26.5262 119.241 26.5262C119.241 26.5244 119.241 26.5244 119.241 26.5244C119.241 26.5244 119.239 26.5189 119.241 26.5189C119.239 26.5135 119.239 26.5116 119.241 26.508C119.239 26.5062 119.239 26.5026 119.241 26.5007C119.239 26.4753 119.239 26.4498 119.241 26.4262V25.5697C119.241 25.4497 119.252 25.3333 119.272 25.226C119.272 25.2242 119.272 25.2205 119.274 25.2187C119.447 24.3349 120.241 23.8621 121.084 24.1313C121.086 24.1313 121.091 24.1331 121.095 24.1331C121.211 24.1713 121.328 24.224 121.446 24.2913C121.614 24.3877 121.78 24.484 121.947 24.5804C121.955 24.5822 121.962 24.5877 121.973 24.595C122.608 24.9641 123.244 25.3296 123.881 25.6951C123.94 25.7279 123.998 25.7606 124.056 25.797C124.093 25.8206 124.133 25.8424 124.178 25.8715C122.843 27.3809 121.222 28.3192 119.246 28.7193C119.244 28.7193 119.244 28.7193 119.241 28.7193V26.528ZM126.247 20.6125C126.245 20.687 126.242 20.7616 126.235 20.8362C126.236 20.838 126.236 20.8416 126.235 20.8434C126.229 20.9198 126.224 20.9926 126.216 21.0689C126.185 21.4017 126.134 21.7345 126.063 22.0673C126.043 22.1691 126.018 22.2728 125.992 22.3746C125.99 22.3891 125.985 22.4073 125.98 22.4255C125.918 22.6583 125.847 22.8947 125.768 23.1311C125.588 23.0274 125.424 22.9347 125.262 22.8419C124.535 22.4255 123.805 22.0054 123.08 21.5817C123.069 21.5799 123.062 21.5708 123.053 21.5672C123.033 21.5563 123.013 21.5472 122.994 21.5345C122.951 21.5108 122.911 21.4835 122.872 21.4563C122.865 21.4508 122.86 21.449 122.852 21.4435C122.84 21.4363 122.827 21.429 122.814 21.4163C122.078 20.8598 122.036 19.8851 122.687 19.2777V19.2759C122.688 19.2741 122.688 19.2705 122.692 19.2741C122.71 19.2595 122.729 19.2432 122.749 19.2286C122.823 19.1595 122.907 19.105 122.998 19.0486C123.138 18.9649 123.28 18.8868 123.421 18.8049C123.433 18.7976 123.444 18.7904 123.457 18.7849C123.938 18.5031 124.421 18.2266 124.905 17.9466C125.067 17.8557 125.231 17.7611 125.393 17.6665C125.446 17.6338 125.502 17.6029 125.559 17.572C125.573 17.5611 125.59 17.5538 125.604 17.5465C125.617 17.5393 125.63 17.532 125.643 17.5265C125.654 17.5211 125.668 17.5138 125.681 17.5065C125.708 17.492 125.739 17.4756 125.772 17.4574H125.774C125.794 17.5156 125.812 17.572 125.83 17.6302C125.848 17.6884 125.867 17.7447 125.883 17.8029C125.954 18.0448 126.018 18.2848 126.069 18.5249C126.094 18.6394 126.114 18.754 126.134 18.8649C126.165 19.0486 126.191 19.2341 126.209 19.4159C126.22 19.4905 126.227 19.5632 126.229 19.6378C126.242 19.7542 126.247 19.8687 126.249 19.9833C126.255 20.0851 126.256 20.1833 126.256 20.2833C126.255 20.3906 126.251 20.5034 126.247 20.6125Z" fill="#3A3A3C"/>
<path d="M100.999 12.2475C100.463 11.9456 99.9444 11.6237 99.3999 11.3546C98.1924 10.7545 96.9065 10.4654 95.557 10.4854C94.6536 10.4999 93.8104 10.7054 93.1183 11.3364C92.2095 12.1638 91.8343 13.7914 92.5937 14.9497C93.0509 15.6462 93.6519 16.1936 94.313 16.6809C95.282 17.3956 96.3383 17.9575 97.4165 18.4885C98.5493 19.0468 99.6676 19.6378 100.671 20.4125C102.423 21.7654 103.396 23.5548 103.629 25.7497C103.784 27.2136 103.645 28.6356 102.94 29.9577C102.143 31.4561 100.917 32.5072 99.4053 33.24C97.9428 33.9492 96.3747 34.2202 94.7684 34.2802C92.6976 34.3584 90.6978 34.0347 88.8128 33.1455C88.3611 32.9327 87.9313 32.6745 87.4923 32.4381C87.394 32.3853 87.3339 32.3326 87.3903 32.1962C87.9586 30.836 88.5195 29.4721 89.0823 28.1101C89.0878 28.0974 89.1024 28.0865 89.1078 28.081C89.6214 28.381 90.1241 28.6993 90.6486 28.9757C92.4663 29.934 94.3859 30.2723 96.4148 29.874C97.0959 29.7413 97.7334 29.4958 98.2233 28.9811C98.8262 28.3483 98.9791 27.5664 98.8881 26.728C98.7442 25.4187 98.0503 24.424 97.045 23.6203C95.9959 22.7838 94.8139 22.1637 93.6228 21.5599C92.4116 20.9453 91.1986 20.327 90.1168 19.4978C88.5432 18.2957 87.6945 16.6755 87.4596 14.7261C87.3029 13.424 87.3812 12.1365 87.9167 10.92C88.8164 8.87055 90.4009 7.57033 92.4954 6.86113C93.3824 6.56108 94.3003 6.43378 95.2364 6.41742C96.7991 6.39014 98.349 6.49015 99.8643 6.90477C100.72 7.13935 101.525 7.48668 102.256 7.99768C102.412 8.1086 102.445 8.2068 102.378 8.38865C101.93 9.62522 101.494 10.8654 101.055 12.1056C101.034 12.1638 101.012 12.2147 100.999 12.2475Z" fill="#3A3A3C"/>
<path d="M117.675 17.3483C119.261 17.3301 120.667 18.6904 120.612 20.387C120.559 21.9745 119.199 23.2748 117.547 23.2311C116.017 23.1911 114.717 21.86 114.72 20.2706C114.724 18.6504 116.044 17.3429 117.675 17.3483Z" fill="#FAAD26"/>
<path d="M46.0273 33.8347C44.9801 33.8365 43.7252 33.8401 42.9129 33.8401C42.0642 33.8401 40.7857 33.8383 39.7239 33.8347H46.0273Z" fill="#3A3A3C"/>
<path d="M138 18.5231H133.948C133.134 10.9509 127.14 4.92627 119.576 4.05158V0C129.373 0.907423 137.159 8.72508 138 18.5231Z" fill="#FAAD26"/>
</g>
<defs>
<clipPath id="clip0">
<rect width="138" height="44" fill="white"/>
</clipPath>
</defs>
</svg>
